<?xml version="1.0" standalone="no"?>
<!DOCTYPE svg PUBLIC "-//W3C//DTD SVG 20010904//EN"
 "http://www.w3.org/TR/2001/REC-SVG-20010904/DTD/svg10.dtd">
<svg version="1.0" xmlns="http://www.w3.org/2000/svg"
 width="512.000000pt" height="512.000000pt" viewBox="0 0 512.000000 512.000000"
 preserveAspectRatio="xMidYMid meet">
<metadata>
Created by potrace 1.11, written by Peter Selinger 2001-2013
</metadata>
<g transform="translate(0.000000,512.000000) scale(0.100000,-0.100000)"
fill="#000000" stroke="none">
<path d="M1975 4984 c-658 -61 -1181 -348 -1504 -828 -164 -242 -263 -511
-318 -861 -21 -134 -31 -1107 -13 -1325 38 -479 192 -872 472 -1205 270 -321
672 -540 1153 -627 128 -23 141 -23 785 -23 720 0 748 2 987 65 360 94 645
258 888 511 249 259 399 533 490 894 64 252 69 325 70 955 0 600 -3 662 -51
897 -151 756 -692 1314 -1449 1494 -209 49 -255 52 -880 54 -324 1 -608 1
-630 -1z m718 -888 c94 -18 196 -53 333 -112 91 -40 118 -58 170 -110 103
-102 164 -258 179 -452 l8 -92 51 -23 c171 -80 300 -244 358 -455 17 -62 21
-106 22 -222 0 -169 -12 -224 -81 -368 -108 -228 -330 -361 -544 -324 -195 34
-336 166 -435 410 -47 115 -47 119 -52 249 -3 100 0 150 13 208 61 276 240
483 453 525 l62 13 0 66 c0 116 -50 291 -82 291 -34 -1 -39 -16 -19 -61 22
-49 36 -107 45 -189 l7 -56 -53 -13 c-182 -46 -329 -173 -416 -361 -19 -41
-36 -77 -38 -79 -4 -4 -28 10 -287 162 l-188 110 -173 -83 c-139 -66 -177 -80
-192 -72 -40 21 -136 134 -162 189 -23 49 -27 71 -26 138 1 130 57 238 196
376 133 133 408 319 511 345 62 16 229 11 340 -10z m876 -511 c250 -244 382
-421 528 -709 l86 -170 -13 -68 c-6 -38 -25 -103 -42 -146 -32 -84 -98 -212
-109 -212 -4 0 -20 33 -35 73 -15 39 -50 119 -79 177 -47 94 -54 116 -64 209
-24 203 -90 350 -211 471 -41 42 -103 91 -137 110 -62 35 -62 35 -63 81 0 102
-45 293 -73 311 -15 10 8 28 35 28 10 0 89 -70 177 -155z m-1339 -440 c17 -9
30 -20 30 -25 0 -5 -17 -21 -37 -36 -21 -15 -53 -39 -72 -53 l-35 -25 40 -16
c21 -9 87 -31 146 -50 l108 -34 59 29 60 28 46 -24 c78 -41 77 -38 64 -185
-11 -120 -14 -132 -44 -174 -89 -126 -221 -378 -303 -580 -35 -84 -42 -95 -62
-92 -27 3 -133 55 -211 104 -83 52 -90 54 -482 153 -202 51 -378 100 -391 108
-84 55 -188 319 -202 511 -8 116 -12 113 192 147 93 15 225 33 294 39 69 6
199 18 289 26 l164 15 151 74 c83 40 155 74 159 74 4 1 21 -6 37 -14z m444
-788 c86 -251 254 -418 463 -462 187 -40 341 10 488 158 91 91 140 170 180
292 15 44 29 82 31 84 7 7 46 -93 100 -256 64 -192 74 -263 74 -529 0 -289
-33 -437 -111 -497 -79 -59 -215 -85 -494 -94 -202 -6 -330 6 -520 48 -292 65
-497 189 -618 374 -47 72 -47 71 61 336 55 134 117 280 137 324 44 97 167 326
173 321 2 -2 18 -47 36 -99z m-729 -367 c66 -41 69 -53 54 -235 -20 -255 5
-371 92 -434 62 -45 209 -118 264 -132 28 -6 104 -38 170 -69 66 -32 150 -68
187 -80 110 -35 98 -44 -48 -36 -267 15 -462 68 -620 167 -141 90 -181 173
-191 399 -8 177 22 440 49 440 6 0 25 -9 43 -20z"/>
<path d="M1085 2886 l-80 -32 0 -55 c0 -36 7 -65 19 -83 21 -33 30 -32 179 14
97 31 97 31 96 63 -2 58 -14 81 -54 104 -52 29 -64 28 -160 -11z"/>
</g>
</svg>
