<svg xmlns="http://www.w3.org/2000/svg" width="512" height="512" version="1" viewBox="0 0 5120 5120"><g fill="#ffffff" fill-opacity=".8"><path d="M2594.936 4943.914c-364.835-29.233-692.252-136.813-898.057-295.844-122.782-93.548-156.693-143.83-203.466-299.353-29.234-97.056-40.927-438.505-22.218-619.753 19.879-189.434 42.097-326.248 54.96-339.11 19.878-19.88 130.966 49.112 162.538 101.733l28.065 46.773-18.71 174.233c-46.774 422.134-8.185 645.479 128.628 748.381 128.119 70.266 335.602 213.383 478.263 215.16 12.862 0 53.79 17.54 90.04 39.758 97.055 59.636 247.9 126.29 391.73 175.402 70.16 23.387 136.814 47.943 146.168 53.79 22.218 12.862-173.063 12.862-337.94-1.17z"/><path d="M3530.413 4873.753c-664.188-64.314-1105.032-247.9-1355.272-564.794-119.273-152.015-139.152-215.16-94.717-307.538 11.694-25.725 49.113-115.765 81.854-197.62 167.217-419.794 204.636-507.495 311.046-723.824 53.79-108.75 125.12-245.563 159.032-304.03l60.806-105.241 10.524 40.927c90.04 383.545 320.4 688.745 610.398 809.187 228.023 93.548 472.416 87.701 681.729-19.879 79.515-39.757 126.29-74.838 213.99-160.2 116.935-112.257 154.354-161.37 224.515-289.998 47.943-88.87 113.426-274.796 113.426-322.74 1.17-98.224 238.547 562.456 257.256 715.64 60.806 485.279 33.911 984.59-61.975 1179.87-56.129 114.596-140.322 162.54-368.344 211.652-188.265 39.758-626.77 59.637-844.268 38.588zM1969.336 3514.974c-51.45-21.049-137.982-67.823-192.942-104.072-148.507-97.056-176.57-109.919-385.884-164.878-174.232-46.774-907.412-230.361-984.59-246.732-84.192-18.71-219.836-233.87-285.32-451.368-45.604-155.523-50.281-175.401-64.313-274.796-24.557-180.08-25.726-194.111-12.863-219.837 5.846-14.032 15.201-33.91 17.54-44.435 4.677-14.032 25.726-22.218 68.991-28.064 33.911-3.508 106.41-15.202 161.37-24.557 362.497-60.806 568.302-86.531 681.729-86.531 59.636 0 204.635-10.524 323.909-24.556l216.329-24.557 192.942-93.547c106.41-51.452 215.16-104.072 242.054-118.104l50.282-23.387 51.451 28.064c28.065 15.202 52.62 33.911 54.96 39.758 2.338 7.016-50.282 47.943-116.935 91.209-66.653 44.435-116.935 84.193-111.088 90.04 5.847 4.677 79.516 31.572 162.54 58.467 84.192 26.895 184.756 59.636 223.344 72.5l72.5 23.386 91.209-47.943 90.04-47.943 53.79 31.572c146.167 84.193 144.998 83.024 135.643 129.797-3.508 24.557-14.032 116.935-21.048 206.975l-14.032 163.708-54.96 76.008c-116.934 163.708-278.304 456.045-371.851 672.374-12.863 32.741-29.234 68.99-35.08 81.854-19.88 43.266-54.96 128.628-88.871 212.82-18.71 46.775-38.588 85.363-45.604 85.363-5.847-1.17-53.79-17.54-105.242-38.588zM417.614 2270.789c100.564-30.403 187.096-59.636 190.604-64.314 4.677-8.185-14.032-111.087-31.573-170.724-2.338-8.185-37.419-30.403-77.176-49.113l-73.67-33.91-140.32 52.62c-77.178 29.234-145 58.467-150.846 63.145-5.847 5.846-5.847 50.282-1.17 99.394 5.847 70.16 14.032 95.886 37.42 122.781 16.37 19.88 36.25 35.08 46.773 35.08 9.355 0 99.395-24.556 199.958-54.959z"/><path d="M3564.324 3500.941c-3.508-2.338-26.895-8.185-52.62-10.524-116.935-15.201-277.135-106.41-406.933-232.7-152.473-164.499-219.097-365.634-288.828-542.576-25.726-70.16-43.266-280.643-32.742-422.134 30.855-332.652 225.968-729.328 507.496-888.703 119.274-59.636 169.555-77.177 268.95-90.04 24.556-3.508 47.943-9.354 50.282-11.693 9.354-8.185 2.338-215.16-9.355-275.966-21.048-113.426-70.16-256.086-99.394-288.828-2.34-2.339-19.88 4.677-39.758 14.032l-35.08 18.71 26.894 60.806c36.25 83.023 66.653 206.974 73.67 306.368l5.846 83.024-56.129 15.201c-198.789 54.96-270.119 90.04-390.561 191.773-134.475 113.427-246.732 268.95-299.353 415.118-16.37 43.266-32.741 83.023-38.588 88.87-5.847 5.847-173.063-87.7-373.022-206.974-199.958-119.273-367.174-217.498-371.852-217.498-4.677 0-68.991 29.233-141.49 64.314-72.5 35.08-192.942 93.547-266.611 129.797l-135.644 65.483-46.774-32.741c-72.5-50.282-176.571-168.386-218.668-249.071-205.805-396.408 116.935-861.808 915.598-1319.022 107.58-61.975 203.466-78.346 387.053-70.16 249.071 12.862 482.94 68.99 712.132 171.893 38.588 17.54 100.564 43.266 139.152 58.467 280.643 111.088 468.908 444.352 494.634 873.502l7.016 130.966 42.096 14.033c123.95 39.757 294.675 168.385 391.73 294.675 184.758 243.224 273.628 568.302 243.225 894.55-7.016 81.854-17.54 164.877-24.556 183.587-5.847 19.878-19.88 66.652-31.573 105.24-30.403 100.564-114.596 267.78-174.232 343.788-65.484 84.193-162.54 177.741-222.176 213.99-70.16 42.097-213.99 99.395-284.151 113.427-61.975 12.863-216.329 17.54-225.684 7.016z"/><path d="M4828.387 2946.671c0-12.862-4.677-26.895-11.693-30.403-5.847-3.508-11.694-16.37-11.694-26.895-1.17-10.524-10.524-40.927-23.387-66.652-12.863-25.726-22.217-51.451-23.387-56.129 0-15.201-105.24-228.022-141.49-288.828-25.726-43.266-32.742-72.5-39.758-163.709-30.403-452.537-232.7-801.002-569.472-986.928l-79.515-43.265v-73.67c0-149.676-73.669-467.738-112.257-482.94-25.726-9.354-19.88-22.217 18.71-38.588 32.74-14.032 37.418-11.693 107.579 47.944 298.183 254.917 583.504 570.64 774.107 858.3 120.443 181.248 166.047 264.272 281.812 502.818l101.733 210.483-19.878 105.24c-11.694 58.468-24.557 111.089-28.065 116.935-4.677 7.016-19.879 49.113-35.08 93.548-33.911 99.394-153.184 335.602-173.063 342.618-9.355 2.339-15.202-5.846-15.202-19.879z"/></g></svg>